<svg width="133" height="202" viewBox="0 0 133 202" fill="none" xmlns="http://www.w3.org/2000/svg">
<g clip-path="url(#clip0_196_416)">
<mask id="mask0_196_416" style="mask-type:luminance" maskUnits="userSpaceOnUse" x="0" y="0" width="132" height="170">
<path d="M131.87 169.71H0.980469V66.42C0.980469 30.28 30.2805 0.97998 66.4205 0.97998C102.56 0.97998 131.86 30.28 131.86 66.42V169.71H131.87Z" fill="white"/>
</mask>
<g mask="url(#mask0_196_416)">
<path d="M119.97 27.33H98.7101C97.5601 27.33 96.6101 26.74 96.0901 25.71C95.5001 24.52 95.6201 23.03 96.4001 21.98C96.9001 21.31 97.6301 20.89 98.4701 20.78C98.4701 20.03 98.6301 19.06 99.2301 18.17C99.9301 17.13 101.06 16.45 102.58 16.15C102.86 15.38 103.49 14.17 104.79 13.5C106.03 12.86 107.53 12.87 109.27 13.53C109.73 13.1 110.45 12.64 111.35 12.79C112.47 12.97 113.34 13.98 114.04 15.92C114.86 15.29 116.01 14.68 117.3 14.81C118.74 14.95 119.96 15.95 120.93 17.77C121.51 18.25 123.12 19.74 123.14 21.57C123.14 22.16 122.98 22.98 122.25 23.79C122.42 24.27 122.53 24.92 122.29 25.58C122.1 26.14 121.59 26.88 120.27 27.29C120.18 27.32 120.08 27.33 119.98 27.33H119.97ZM98.9601 22.7C98.5201 22.7 98.1901 22.85 97.9601 23.15C97.6301 23.59 97.5801 24.31 97.8301 24.82C98.0101 25.18 98.2901 25.35 98.6901 25.35H119.79C120.12 25.23 120.34 25.07 120.4 24.91C120.49 24.66 120.3 24.24 120.2 24.08C119.92 23.65 120.01 23.07 120.41 22.76C121.14 22.19 121.14 21.72 121.14 21.57C121.14 20.6 119.94 19.48 119.53 19.17C119.41 19.08 119.31 18.96 119.25 18.83C118.59 17.53 117.86 16.82 117.08 16.74C115.95 16.62 114.69 17.84 114.31 18.31C114.08 18.6 113.7 18.74 113.34 18.66C112.98 18.58 112.69 18.3 112.59 17.94C111.8 14.86 111.03 14.7 111.02 14.7C110.85 14.67 110.52 14.97 110.35 15.23C110.08 15.63 109.55 15.78 109.12 15.58C107.68 14.91 106.52 14.79 105.69 15.21C104.59 15.77 104.3 17.17 104.3 17.18C104.22 17.6 103.88 17.92 103.45 17.97C102.19 18.13 101.32 18.55 100.85 19.23C100.18 20.21 100.49 21.49 100.49 21.5C100.57 21.82 100.49 22.17 100.26 22.41C100.03 22.65 99.7001 22.77 99.3701 22.71C99.2201 22.68 99.0901 22.67 98.9601 22.67V22.7Z" fill="black"/>
</g>
<path d="M132.85 170.7H0V66.43C0 29.8 29.8 0 66.43 0C103.06 0 132.86 29.8 132.86 66.43V170.7H132.85ZM1.97 168.73H130.89V66.43C130.89 30.88 101.97 1.97 66.43 1.97C30.89 1.97 1.97 30.88 1.97 66.43V168.73Z" fill="black"/>
<path d="M19.0293 143.49C18.7993 142.79 18.1392 142.41 17.5592 142.65C16.9792 142.89 16.7093 143.65 16.9393 144.35L19.0393 150.65C19.2693 151.35 19.9292 151.73 20.5092 151.49C21.0892 151.25 21.3592 150.49 21.1292 149.79L19.0293 143.49Z" fill="black"/>
<path d="M24.6305 142.43C24.0105 142.43 23.4505 143.02 23.3905 143.76L22.8705 150.38C22.8105 151.12 23.2705 151.72 23.8905 151.72C24.5105 151.72 25.0705 151.13 25.1305 150.39L25.6505 143.77C25.7105 143.03 25.2505 142.43 24.6305 142.43Z" fill="black"/>
<path d="M31.3606 142.72C30.7606 142.54 30.0606 142.95 29.8006 143.64L27.4306 149.84C27.1706 150.53 27.4306 151.24 28.0306 151.42C28.6306 151.6 29.3306 151.19 29.5906 150.5L31.9606 144.3C32.2206 143.61 31.9606 142.9 31.3606 142.72Z" fill="black"/>
<path d="M95.0291 48.2899C87.1091 52.8999 82.1691 61.7799 82.1191 71.4599C82.1191 71.8199 82.4091 72.0999 82.7591 72.1099C83.1091 72.1099 83.3991 71.8199 83.3991 71.4699C83.4391 62.2399 88.1391 53.7799 95.6691 49.3999C95.9791 49.2199 96.0791 48.8299 95.8991 48.5199C95.7191 48.2099 95.3291 48.1099 95.0191 48.2899H95.0291Z" fill="black"/>
<path d="M105.62 37.6199C92.1403 36.0999 79.4403 43.4499 74.0503 55.9299C68.6603 68.4099 72.0003 82.6899 82.3703 91.4599C83.7903 92.6699 85.5402 93.2999 87.3502 93.2999C87.9402 93.2999 88.5402 93.2299 89.1402 93.0899C91.5302 92.5299 93.4602 90.9199 94.4302 88.6599L111.86 48.3099C112.83 46.0599 112.69 43.5499 111.46 41.4299C110.22 39.2899 108.1 37.8999 105.63 37.6199H105.62ZM109.94 47.4899L92.5103 87.8399C91.8003 89.4799 90.4003 90.6499 88.6603 91.0599C86.9003 91.4699 85.1003 91.0399 83.7203 89.8699C74.0603 81.6899 70.9502 68.3899 75.9702 56.7599C80.5502 46.1499 90.7902 39.5199 102.1 39.5199C103.19 39.5199 104.28 39.5799 105.38 39.7099C107.18 39.9099 108.73 40.9299 109.64 42.4899C110.53 44.0299 110.64 45.8599 109.93 47.4999L109.94 47.4899Z" fill="black"/>
<path d="M53.1594 59.14C52.4394 59.68 51.9694 60.48 51.8494 61.37C51.7294 62.26 51.9594 63.15 52.4994 63.87C53.0394 64.59 53.8294 65.06 54.7294 65.18C54.8894 65.2 55.0494 65.21 55.1994 65.21C55.9294 65.21 56.6394 64.98 57.2294 64.53C57.9494 63.99 58.4194 63.19 58.5394 62.3C58.7994 60.45 57.5094 58.74 55.6594 58.49C54.7694 58.37 53.8794 58.6 53.1594 59.14Z" fill="black"/>
<path d="M109.01 145.65C107.55 144.55 105.46 144.85 104.36 146.32C103.26 147.79 103.56 149.87 105.03 150.97C106.49 152.07 108.58 151.77 109.68 150.3C110.78 148.84 110.48 146.75 109.01 145.65ZM108.14 149.13C107.68 149.74 106.81 149.87 106.2 149.41C105.59 148.95 105.46 148.08 105.92 147.47C106.38 146.86 107.25 146.73 107.86 147.19C108.47 147.65 108.6 148.52 108.14 149.13Z" fill="black"/>
<path d="M116.95 145.74C115.49 144.64 113.4 144.94 112.3 146.41C111.2 147.88 111.5 149.96 112.97 151.06C114.44 152.16 116.52 151.86 117.62 150.39C118.72 148.93 118.42 146.84 116.95 145.74ZM116.07 149.23C115.61 149.84 114.74 149.97 114.13 149.51C113.52 149.05 113.39 148.18 113.85 147.57C114.31 146.96 115.18 146.83 115.79 147.29C116.4 147.75 116.53 148.62 116.07 149.23Z" fill="black"/>
<path d="M81.4899 94.23C76.2099 96.66 70.3699 97.56 64.5699 96.85C58.3299 96.08 52.9099 93.74 48.4899 89.9C48.4899 89.9 48.4799 89.9 48.4699 89.89C48.4699 89.89 48.4599 89.88 48.4499 89.87C47.6499 89.24 46.9599 88.97 46.1299 88.97C43.7999 88.97 41.8999 90.87 41.8999 93.2C41.8999 94.73 42.8199 95.68 43.6299 96.52L43.7799 96.68C43.7799 96.68 43.8099 96.7 43.8199 96.71C45.1599 98.19 46.5799 99.51 48.0799 100.69C47.9399 100.87 47.8399 101.1 47.8399 101.35V112.82C47.8399 130.96 52.4799 139.43 65.1899 143.17C63.0299 144.54 61.5799 146.96 61.5799 149.72C61.5799 151.52 62.1999 153.18 63.2299 154.5C47.9899 151.68 36.4099 138.29 36.4099 122.25V119.13H41.5599C42.1699 119.13 42.6699 118.63 42.6699 118.02V117.99C42.6699 117.38 42.1699 116.88 41.5599 116.88H36.4099V110.8H41.5599C42.1699 110.8 42.6699 110.3 42.6699 109.69V109.66C42.6699 109.05 42.1699 108.55 41.5599 108.55H36.4099V102.47H41.5599C42.1699 102.47 42.6699 101.97 42.6699 101.36V101.33C42.6699 100.72 42.1699 100.22 41.5599 100.22H36.4099V70.77C36.4099 52.68 51.1299 37.96 69.2199 37.96H76.9099C77.5199 37.96 78.0099 37.47 78.0099 36.86C78.0099 36.25 77.5199 35.76 76.9099 35.76H69.2199C49.9199 35.76 34.2099 51.46 34.2099 70.77V95.88C27.6599 94.71 22.0099 91.51 17.4199 86.35C17.2499 86.16 17.0399 86.06 16.8099 85.99C16.3699 85.51 16.1299 85.13 16.1299 84.65C16.1299 83.53 17.0399 82.62 18.1599 82.62C18.4399 82.62 18.6699 82.69 19.1199 83.04C21.9599 85.5 25.1899 87.4 28.7499 88.69C28.8699 88.74 28.9999 88.76 29.1299 88.76C29.5799 88.76 29.9999 88.48 30.1599 88.04C30.3699 87.47 30.0699 86.84 29.4999 86.63C26.1899 85.42 23.1699 83.65 20.5199 81.36C20.5199 81.36 20.5099 81.36 20.4999 81.35C20.4999 81.35 20.4999 81.34 20.4799 81.33C19.6899 80.7 18.9899 80.43 18.1499 80.43C15.8199 80.43 13.9199 82.33 13.9199 84.66C13.9199 85.92 14.5399 86.78 15.2099 87.51C15.2599 87.71 15.3399 87.9 15.4799 88.06C20.5599 93.78 26.8499 97.29 34.1599 98.5C34.1699 98.5 34.1799 98.5 34.1999 98.5V122.23C34.1999 140.91 48.9099 156.22 67.3499 157.19C67.9499 157.34 68.5799 157.43 69.2299 157.43C73.4499 157.43 76.8899 153.96 76.8899 149.7C76.8899 145.44 73.7499 142.29 69.7899 142C55.0299 139.12 50.0299 131.7 50.0299 112.8V102.1C53.6699 104.52 57.7199 106.12 62.1599 106.86C62.2199 106.86 62.2799 106.87 62.3399 106.87C62.8699 106.87 63.3299 106.49 63.4199 105.95C63.5199 105.35 63.1099 104.79 62.5199 104.69C55.7599 103.57 49.9499 100.32 45.2299 95.01C45.2199 95 45.1999 94.99 45.1899 94.98C44.4799 94.25 44.0799 93.8 44.0799 93.19C44.0799 92.07 44.9899 91.16 46.1099 91.16C46.3899 91.16 46.6199 91.23 47.0699 91.58C51.8199 95.69 57.6099 98.2 64.2799 99.02C65.6599 99.19 67.0399 99.27 68.4099 99.27C73.2299 99.27 77.9899 98.24 82.3899 96.22C82.9399 95.97 83.1799 95.31 82.9299 94.76C82.6799 94.21 82.0199 93.97 81.4699 94.22L81.4899 94.23Z" fill="black"/>
<path d="M14.2297 197.57H6.85969L5.67969 201.02H0.179688L7.72969 181.19H13.3597L20.9097 201.02H15.4097L14.2297 197.57ZM12.8597 193.65L10.5497 187.05L8.23969 193.65H12.8697H12.8597Z" fill="black"/>
<path d="M22.2793 201.02L25.6493 181.19H30.7493L34.7193 191.76L38.6693 181.19H43.7693L47.1393 201.02H42.0093L40.2993 189.6L35.6193 201.02H33.5693L29.1193 189.6L27.4093 201.02H22.2793Z" fill="black"/>
<path d="M62.5498 197.57H55.1898L54.0098 201.02H48.5098L56.0598 181.19H61.6898L69.2398 201.02H63.7398L62.5598 197.57H62.5498ZM61.1798 193.65L58.8698 187.05L56.5598 193.65H61.1898H61.1798Z" fill="black"/>
<path d="M75.2208 198.2H84.7408V201.01H70.3008L80.0408 183.99H71.9008V181.18H84.9608L75.2308 198.2H75.2208Z" fill="black"/>
<path d="M87.2405 191.01C87.2405 188.22 88.2605 185.82 90.3105 183.82C92.3505 181.82 94.8005 180.81 97.6605 180.81C100.52 180.81 102.91 181.82 104.93 183.84C106.96 185.86 107.97 188.29 107.97 191.12C107.97 193.95 106.95 196.39 104.91 198.38C102.86 200.38 100.39 201.37 97.5005 201.37C94.9405 201.37 92.6405 200.48 90.6005 198.71C88.3605 196.75 87.2305 194.18 87.2305 191L87.2405 191.01ZM90.2605 191.05C90.2605 193.24 91.0005 195.04 92.4705 196.46C93.9305 197.87 95.6205 198.58 97.5405 198.58C99.6205 198.58 101.37 197.86 102.8 196.42C104.23 194.96 104.95 193.19 104.95 191.1C104.95 189.01 104.24 187.21 102.83 185.78C101.43 184.34 99.6905 183.62 97.6205 183.62C95.5505 183.62 93.8105 184.34 92.3905 185.78C90.9705 187.2 90.2605 188.96 90.2605 191.05Z" fill="black"/>
<path d="M110.74 191.01C110.74 188.22 111.76 185.82 113.81 183.82C115.85 181.82 118.3 180.81 121.16 180.81C124.02 180.81 126.41 181.82 128.43 183.84C130.46 185.86 131.47 188.29 131.47 191.12C131.47 193.95 130.45 196.39 128.41 198.38C126.36 200.38 123.89 201.37 121 201.37C118.44 201.37 116.14 200.48 114.1 198.71C111.86 196.75 110.73 194.18 110.73 191L110.74 191.01ZM113.76 191.05C113.76 193.24 114.5 195.04 115.97 196.46C117.43 197.87 119.12 198.58 121.04 198.58C123.12 198.58 124.87 197.86 126.3 196.42C127.73 194.96 128.45 193.19 128.45 191.1C128.45 189.01 127.74 187.21 126.33 185.78C124.93 184.34 123.19 183.62 121.12 183.62C119.05 183.62 117.31 184.34 115.89 185.78C114.47 187.2 113.76 188.96 113.76 191.05Z" fill="black"/>
<path d="M27.4204 47.44C27.0804 47.44 26.7604 47.26 26.5804 46.97C24.8904 44.15 23.1304 45.04 23.1104 45.05C22.6304 45.3 22.0404 45.12 21.7804 44.64C21.5304 44.16 21.7104 43.57 22.1904 43.31C23.1904 42.78 25.3404 42.52 27.2604 44.59C28.1204 43.42 29.6404 42.41 32.0004 42.97C32.5304 43.09 32.8504 43.62 32.7304 44.15C32.6104 44.68 32.0704 45.01 31.5504 44.88C29.1704 44.32 28.4904 46.31 28.3704 46.71C28.2604 47.09 27.9404 47.37 27.5504 47.42C27.5004 47.42 27.4604 47.42 27.4204 47.42V47.44Z" fill="black"/>
<path d="M32.5599 41.08C32.2199 41.08 31.8999 40.91 31.7199 40.61C30.9199 39.28 30.1899 39.52 30.0599 39.58C29.5699 39.8 28.9899 39.6 28.7599 39.12C28.5299 38.64 28.6999 38.08 29.1699 37.83C29.8299 37.48 31.1899 37.28 32.4499 38.4C33.1099 37.72 34.1199 37.26 35.4799 37.59C36.0099 37.71 36.3299 38.24 36.2099 38.77C36.0899 39.3 35.5599 39.62 35.0299 39.5C33.9599 39.25 33.6199 40.02 33.5199 40.36C33.4099 40.74 33.0899 41.02 32.6999 41.07C32.6599 41.07 32.6099 41.07 32.5699 41.07L32.5599 41.08Z" fill="black"/>
<path d="M22.2095 39.87C21.8395 39.87 21.4995 39.66 21.3295 39.33C20.7095 38.1 19.9995 37.33 19.2795 37.11C18.6995 36.93 18.2695 37.17 18.2495 37.18C17.7895 37.44 17.1895 37.3 16.9095 36.84C16.6395 36.38 16.7695 35.8 17.2195 35.51C17.3295 35.44 18.3695 34.81 19.7695 35.2C20.6095 35.43 21.3695 35.97 22.0495 36.8C22.3795 36.3 22.8295 35.8 23.4295 35.44C24.3295 34.9 25.3995 34.79 26.5395 35.11C27.0595 35.26 27.3695 35.8 27.2195 36.32C27.0695 36.84 26.5295 37.15 26.0095 37C25.3895 36.82 24.8695 36.86 24.4395 37.12C23.6495 37.59 23.2495 38.73 23.1695 39.09C23.0795 39.5 22.7395 39.8 22.3295 39.85C22.2895 39.85 22.2495 39.85 22.2095 39.85V39.87Z" fill="black"/>
</g>
<defs>
<clipPath id="clip0_196_416">
<rect width="132.85" height="201.38" fill="white"/>
</clipPath>
</defs>
</svg>
